<svg xmlns="http://www.w3.org/2000/svg" width="1005" height="600"><rect width="1005" height="600" x="0" y="0" fill="#FFFFFF" id="backgorund"/><g transform="translate(402.5,300)" id="viz"><g id="links"><path d="M0,0C-0.05581372161308374,47.49996720870952,23.751095061248733,-41.135574426419836,47.50219012249747,-82.27114885283967" fill="none" stroke="#ccc"/><path d="M0,0C-0.05581372161308374,47.49996720870952,47.4998297647026,0.12717045361352491,94.9996595294052,0.25434090722704983" fill="none" stroke="#ccc"/><path d="M0,0C-0.05581372161308374,47.49996720870952,23.59981640734573,41.22255044923319,47.19963281469146,82.44510089846638" fill="none" stroke="#ccc"/><path d="M0,0C-0.05581372161308374,47.49996720870952,-23.878109894300373,41.06197593730378,-47.756219788600745,82.12395187460756" fill="none" stroke="#ccc"/><path d="M0,0C-0.05581372161308374,47.49996720870952,-47.49992807436037,-0.08266154239596929,-94.99985614872074,-0.16532308479193858" fill="none" stroke="#ccc"/><path d="M0,0C-0.05581372161308374,47.49996720870952,-23.65435882663698,-41.19127709237359,-47.30871765327396,-82.38255418474718" fill="none" stroke="#ccc"/><path d="M47.50219012249747,-82.27114885283967C71.2532851837462,-123.40672327925951,20.45347534005629,-141.0244849184485,27.271300453408386,-188.03264655793134" fill="none" stroke="#ccc"/><path d="M47.50219012249747,-82.27114885283967C71.2532851837462,-123.40672327925951,60.387438328873586,-129.07210113760638,80.51658443849811,-172.09613485014182" fill="none" stroke="#ccc"/><path d="M47.50219012249747,-82.27114885283967C71.2532851837462,-123.40672327925951,88.66524289424987,-111.55592634416011,118.22032385899982,-148.7412351255468" fill="none" stroke="#ccc"/><path d="M47.50219012249747,-82.27114885283967C71.2532851837462,-123.40672327925951,111.90874589274203,-88.21951367307402,149.2116611903227,-117.62601823076535" fill="none" stroke="#ccc"/><path d="M94.9996595294052,0.25434090722704983C142.49948929410783,0.38151136084057474,132.5557753078219,-52.29929667349488,176.74103374376256,-69.73239556465984" fill="none" stroke="#ccc"/><path d="M94.9996595294052,0.25434090722704983C142.49948929410783,0.38151136084057474,142.02060012158762,-11.679004285644764,189.36080016211682,-15.572005714193017" fill="none" stroke="#ccc"/><path d="M94.9996595294052,0.25434090722704983C142.49948929410783,0.38151136084057474,140.8783361582536,21.43698675845306,187.83778154433816,28.582649011270746" fill="none" stroke="#ccc"/><path d="M94.9996595294052,0.25434090722704983C142.49948929410783,0.38151136084057474,132.27383708853066,53.00832030801253,176.36511611804087,70.67776041068338" fill="none" stroke="#ccc"/><path d="M47.19963281469146,82.44510089846638C70.7994492220372,123.66765134769956,111.52376420064219,88.70569327004641,148.69835226752292,118.27425769339521" fill="none" stroke="#ccc"/><path d="M47.19963281469146,82.44510089846638C70.7994492220372,123.66765134769956,80.98962782605328,117.24730352804441,107.9861704347377,156.32973803739256" fill="none" stroke="#ccc"/><path d="M47.19963281469146,82.44510089846638C70.7994492220372,123.66765134769956,51.606356061460644,132.82708313464443,68.80847474861419,177.10277751285926" fill="none" stroke="#ccc"/><path d="M47.19963281469146,82.44510089846638C70.7994492220372,123.66765134769956,20.030953559862212,141.0851193410653,26.707938079816284,188.11349245475375" fill="none" stroke="#ccc"/><path d="M-47.756219788600745,82.12395187460756C-71.63432968290111,123.18592781191134,-21.225903904692814,140.9102941712519,-28.301205206257084,187.88039222833586" fill="none" stroke="#ccc"/><path d="M-47.756219788600745,82.12395187460756C-71.63432968290111,123.18592781191134,-61.136783025143515,128.71885550041424,-81.51571070019135,171.625140667219" fill="none" stroke="#ccc"/><path d="M-47.756219788600745,82.12395187460756C-71.63432968290111,123.18592781191134,-89.10967033241177,111.20124393750682,-118.81289377654902,148.26832525000907" fill="none" stroke="#ccc"/><path d="M-47.756219788600745,82.12395187460756C-71.63432968290111,123.18592781191134,-111.97060252454543,88.14099029560687,-149.2941366993939,117.52132039414249" fill="none" stroke="#ccc"/><path d="M-94.99985614872074,-0.16532308479193858C-142.49978422308112,-0.24798462718790787,-132.46369636190502,52.532077306547016,-176.61826181587335,70.04276974206269" fill="none" stroke="#ccc"/><path d="M-94.99985614872074,-0.16532308479193858C-142.49978422308112,-0.24798462718790787,-142.00227903557848,11.89969531970059,-189.33637204743798,15.866260426267456" fill="none" stroke="#ccc"/><path d="M-94.99985614872074,-0.16532308479193858C-142.49978422308112,-0.24798462718790787,-140.88868170347507,-21.368887847917666,-187.85157560463344,-28.49185046389022" fill="none" stroke="#ccc"/><path d="M-94.99985614872074,-0.16532308479193858C-142.49978422308112,-0.24798462718790787,-132.2800571611541,-52.99279646746155,-176.37340954820544,-70.6570619566154" fill="none" stroke="#ccc"/><path d="M-47.30871765327396,-82.38255418474718C-70.96307647991094,-123.57383127712077,-111.49287044982078,-88.74452004974435,-148.65716059976106,-118.32602673299247" fill="none" stroke="#ccc"/><path d="M-47.30871765327396,-82.38255418474718C-70.96307647991094,-123.57383127712077,-80.93061390905316,-117.28804599064549,-107.9074852120709,-156.38406132086064" fill="none" stroke="#ccc"/><path d="M-47.30871765327396,-82.38255418474718C-70.96307647991094,-123.57383127712077,-51.70823702145274,-132.78745507062504,-68.94431602860365,-177.04994009416671" fill="none" stroke="#ccc"/><path d="M-47.30871765327396,-82.38255418474718C-70.96307647991094,-123.57383127712077,-20.453475340056183,-141.0244849184485,-27.271300453408244,-188.03264655793134" fill="none" stroke="#ccc"/></g><g><circle transform="&#10;&#9;        rotate(90.06732402996269)&#10;&#9;        translate(0,0)&#10;&#9;      " fill="#ccc" r="5"/><circle transform="&#10;&#9;        rotate(-59.998474753141025)&#10;&#9;        translate(95,0)&#10;&#9;      " fill="#ccc" r="5"/><circle transform="&#10;&#9;        rotate(0.15339661000689375)&#10;&#9;        translate(95,0)&#10;&#9;      " fill="#ccc" r="5"/><circle transform="&#10;&#9;        rotate(60.20896081420753)&#10;&#9;        translate(95,0)&#10;&#9;      " fill="#ccc" r="5"/><circle transform="&#10;&#9;        rotate(120.17859641369978)&#10;&#9;        translate(95,0)&#10;&#9;      " fill="#ccc" r="5"/><circle transform="&#10;&#9;        rotate(180.0997086294288)&#10;&#9;        translate(95,0)&#10;&#9;      " fill="#ccc" r="5"/><circle transform="&#10;&#9;        rotate(240.13312281306645)&#10;&#9;        translate(95,0)&#10;&#9;      " fill="#ccc" r="5"/><circle transform="&#10;&#9;        rotate(-81.74765303232026)&#10;&#9;        translate(190,0)&#10;&#9;      " fill="#2ca02c" r="24.664823350186065"/><circle transform="&#10;&#9;        rotate(-64.92707207278515)&#10;&#9;        translate(190,0)&#10;&#9;      " fill="#ff7f0e" r="7.482829416569767"/><circle transform="&#10;&#9;        rotate(-51.52213612829348)&#10;&#9;        translate(190,0)&#10;&#9;      " fill="#d62728" r="6.849294338089296"/><circle transform="&#10;&#9;        rotate(-38.2492964739618)&#10;&#9;        translate(190,0)&#10;&#9;      " fill="#1f77b4" r="6.793833552136852"/><circle transform="&#10;&#9;        rotate(-21.531494650609574)&#10;&#9;        translate(190,0)&#10;&#9;      " fill="#2ca02c" r="24.817737544995925"/><circle transform="&#10;&#9;        rotate(-4.701116219559864)&#10;&#9;        translate(190,0)&#10;&#9;      " fill="#ff7f0e" r="7.381017469576843"/><circle transform="&#10;&#9;        rotate(8.652135976739942)&#10;&#9;        translate(190,0)&#10;&#9;      " fill="#d62728" r="6.6815310478106085"/><circle transform="&#10;&#9;        rotate(21.83828787062336)&#10;&#9;        translate(190,0)&#10;&#9;      " fill="#1f77b4" r="6.509445549041192"/><circle transform="&#10;&#9;        rotate(38.498642417541845)&#10;&#9;        translate(190,0)&#10;&#9;      " fill="#2ca02c" r="24.80248854967297"/><circle transform="&#10;&#9;        rotate(55.36487458698508)&#10;&#9;        translate(190,0)&#10;&#9;      " fill="#ff7f0e" r="7.583274574269688"/><circle transform="&#10;&#9;        rotate(68.76771444320806)&#10;&#9;        translate(190,0)&#10;&#9;      " fill="#1f77b4" r="6.737916275711562"/><circle transform="&#10;&#9;        rotate(81.91927921087316)&#10;&#9;        translate(190,0)&#10;&#9;      " fill="#d62728" r="6.272658684590262"/><circle transform="&#10;&#9;        rotate(98.56629749296727)&#10;&#9;        translate(190,0)&#10;&#9;      " fill="#2ca02c" r="24.969715312928916"/><circle transform="&#10;&#9;        rotate(115.40602081870924)&#10;&#9;        translate(190,0)&#10;&#9;      " fill="#ff7f0e" r="7.2777813717447755"/><circle transform="&#10;&#9;        rotate(128.70648755810078)&#10;&#9;        translate(190,0)&#10;&#9;      " fill="#d62728" r="6.509445549041192"/><circle transform="&#10;&#9;        rotate(141.79089533443232)&#10;&#9;        translate(190,0)&#10;&#9;      " fill="#1f77b4" r="6.150847891314036"/><circle transform="&#10;&#9;        rotate(158.3678535420926)&#10;&#9;        translate(190,0)&#10;&#9;      " fill="#2ca02c" r="24.726102508855906"/><circle transform="&#10;&#9;        rotate(175.20984403603268)&#10;&#9;        translate(190,0)&#10;&#9;      " fill="#ff7f0e" r="7.533219409596635"/><circle transform="&#10;&#9;        rotate(188.62444089647994)&#10;&#9;        translate(190,0)&#10;&#9;      " fill="#d62728" r="6.849294338089296"/><circle transform="&#10;&#9;        rotate(201.831563716765)&#10;&#9;        translate(190,0)&#10;&#9;      " fill="#1f77b4" r="6.45106369215888"/><circle transform="&#10;&#9;        rotate(218.51859259381268)&#10;&#9;        translate(190,0)&#10;&#9;      " fill="#2ca02c" r="25"/><circle transform="&#10;&#9;        rotate(235.39370817912567)&#10;&#9;        translate(190,0)&#10;&#9;      " fill="#ff7f0e" r="7.432097784733473"/><circle transform="&#10;&#9;        rotate(248.7237609098401)&#10;&#9;        translate(190,0)&#10;&#9;      " fill="#1f77b4" r="6.509445549041192"/><circle transform="&#10;&#9;        rotate(261.74765303232033)&#10;&#9;        translate(190,0)&#10;&#9;      " fill="#d62728" r="5.835206663338847"/></g><g id="labels"><g transform="&#10;&#9;        rotate(90.06732402996269)&#10;&#9;        translate(0,0)&#10;&#9;        rotate(180)&#10;&#9;      "><text x="0" y="0" text-anchor="middle" dominant-baseline="text-before-edge" transform="translate(0,0)"><tspan x="6" y="0" dy="0" text-anchor="start" style="font-family: Arial, sans-serif; font-size: 10px; fill: black; font-weight: normal;"/></text></g><g transform="&#10;&#9;        rotate(-59.998474753141025)&#10;&#9;        translate(95,0)&#10;&#9;        rotate(0)&#10;&#9;      "><text x="0" y="0" text-anchor="middle" dominant-baseline="text-before-edge" transform="translate(0,-5.333333492279053)"><tspan x="-6" y="0" dy="0" text-anchor="end" style="font-family: Arial, sans-serif; font-size: 10px; fill: black; font-weight: normal;">2017</tspan></text></g><g transform="&#10;&#9;        rotate(0.15339661000689375)&#10;&#9;        translate(95,0)&#10;&#9;        rotate(0)&#10;&#9;      "><text x="0" y="0" text-anchor="middle" dominant-baseline="text-before-edge" transform="translate(0,-5.333333492279053)"><tspan x="-6" y="0" dy="0" text-anchor="end" style="font-family: Arial, sans-serif; font-size: 10px; fill: black; font-weight: normal;">2019</tspan></text></g><g transform="&#10;&#9;        rotate(60.20896081420753)&#10;&#9;        translate(95,0)&#10;&#9;        rotate(0)&#10;&#9;      "><text x="0" y="0" text-anchor="middle" dominant-baseline="text-before-edge" transform="translate(0,-5.333333492279053)"><tspan x="-6" y="0" dy="0" text-anchor="end" style="font-family: Arial, sans-serif; font-size: 10px; fill: black; font-weight: normal;">2021</tspan></text></g><g transform="&#10;&#9;        rotate(120.17859641369978)&#10;&#9;        translate(95,0)&#10;&#9;        rotate(180)&#10;&#9;      "><text x="0" y="0" text-anchor="middle" dominant-baseline="text-before-edge" transform="translate(0,-5.333333492279053)"><tspan x="6" y="0" dy="0" text-anchor="start" style="font-family: Arial, sans-serif; font-size: 10px; fill: black; font-weight: normal;">2016</tspan></text></g><g transform="&#10;&#9;        rotate(180.0997086294288)&#10;&#9;        translate(95,0)&#10;&#9;        rotate(180)&#10;&#9;      "><text x="0" y="0" text-anchor="middle" dominant-baseline="text-before-edge" transform="translate(0,-5.333333492279053)"><tspan x="6" y="0" dy="0" text-anchor="start" style="font-family: Arial, sans-serif; font-size: 10px; fill: black; font-weight: normal;">2018</tspan></text></g><g transform="&#10;&#9;        rotate(240.13312281306645)&#10;&#9;        translate(95,0)&#10;&#9;        rotate(180)&#10;&#9;      "><text x="0" y="0" text-anchor="middle" dominant-baseline="text-before-edge" transform="translate(0,-5.333333492279053)"><tspan x="6" y="0" dy="0" text-anchor="start" style="font-family: Arial, sans-serif; font-size: 10px; fill: black; font-weight: normal;">2020</tspan></text></g><g transform="&#10;&#9;        rotate(-81.74765303232026)&#10;&#9;        translate(190,0)&#10;&#9;        rotate(0)&#10;&#9;      "><text x="0" y="0" text-anchor="middle" dominant-baseline="text-before-edge" transform="translate(0,-5.333333492279053)"><tspan x="29.664823350186065" y="0" dy="0" text-anchor="start" style="font-family: Arial, sans-serif; font-size: 10px; fill: black; font-weight: normal; font-style: italic;">80.4</tspan></text></g><g transform="&#10;&#9;        rotate(-64.92707207278515)&#10;&#9;        translate(190,0)&#10;&#9;        rotate(0)&#10;&#9;      "><text x="0" y="0" text-anchor="middle" dominant-baseline="text-before-edge" transform="translate(0,-5.333333492279053)"><tspan x="12.482829416569768" y="0" dy="0" text-anchor="start" style="font-family: Arial, sans-serif; font-size: 10px; fill: black; font-weight: normal; font-style: italic;">7.4</tspan></text></g><g transform="&#10;&#9;        rotate(-51.52213612829348)&#10;&#9;        translate(190,0)&#10;&#9;        rotate(0)&#10;&#9;      "><text x="0" y="0" text-anchor="middle" dominant-baseline="text-before-edge" transform="translate(0,-5.333333492279053)"><tspan x="11.849294338089296" y="0" dy="0" text-anchor="start" style="font-family: Arial, sans-serif; font-size: 10px; fill: black; font-weight: normal; font-style: italic;">6.2</tspan></text></g><g transform="&#10;&#9;        rotate(-38.2492964739618)&#10;&#9;        translate(190,0)&#10;&#9;        rotate(0)&#10;&#9;      "><text x="0" y="0" text-anchor="middle" dominant-baseline="text-before-edge" transform="translate(0,-5.333333492279053)"><tspan x="11.793833552136853" y="0" dy="0" text-anchor="start" style="font-family: Arial, sans-serif; font-size: 10px; fill: black; font-weight: normal; font-style: italic;">6.1</tspan></text></g><g transform="&#10;&#9;        rotate(-21.531494650609574)&#10;&#9;        translate(190,0)&#10;&#9;        rotate(0)&#10;&#9;      "><text x="0" y="0" text-anchor="middle" dominant-baseline="text-before-edge" transform="translate(0,-5.333333492279053)"><tspan x="29.817737544995925" y="0" dy="0" text-anchor="start" style="font-family: Arial, sans-serif; font-size: 10px; fill: black; font-weight: normal; font-style: italic;">81.4</tspan></text></g><g transform="&#10;&#9;        rotate(-4.701116219559864)&#10;&#9;        translate(190,0)&#10;&#9;        rotate(0)&#10;&#9;      "><text x="0" y="0" text-anchor="middle" dominant-baseline="text-before-edge" transform="translate(0,-5.333333492279053)"><tspan x="12.381017469576843" y="0" dy="0" text-anchor="start" style="font-family: Arial, sans-serif; font-size: 10px; fill: black; font-weight: normal; font-style: italic;">7.2</tspan></text></g><g transform="&#10;&#9;        rotate(8.652135976739942)&#10;&#9;        translate(190,0)&#10;&#9;        rotate(0)&#10;&#9;      "><text x="0" y="0" text-anchor="middle" dominant-baseline="text-before-edge" transform="translate(0,-5.333333492279053)"><tspan x="11.681531047810608" y="0" dy="0" text-anchor="start" style="font-family: Arial, sans-serif; font-size: 10px; fill: black; font-weight: normal; font-style: italic;">5.9</tspan></text></g><g transform="&#10;&#9;        rotate(21.83828787062336)&#10;&#9;        translate(190,0)&#10;&#9;        rotate(0)&#10;&#9;      "><text x="0" y="0" text-anchor="middle" dominant-baseline="text-before-edge" transform="translate(0,-5.333333492279053)"><tspan x="11.509445549041192" y="0" dy="0" text-anchor="start" style="font-family: Arial, sans-serif; font-size: 10px; fill: black; font-weight: normal; font-style: italic;">5.6</tspan></text></g><g transform="&#10;&#9;        rotate(38.498642417541845)&#10;&#9;        translate(190,0)&#10;&#9;        rotate(0)&#10;&#9;      "><text x="0" y="0" text-anchor="middle" dominant-baseline="text-before-edge" transform="translate(0,-5.333333492279053)"><tspan x="29.80248854967297" y="0" dy="0" text-anchor="start" style="font-family: Arial, sans-serif; font-size: 10px; fill: black; font-weight: normal; font-style: italic;">81.3</tspan></text></g><g transform="&#10;&#9;        rotate(55.36487458698508)&#10;&#9;        translate(190,0)&#10;&#9;        rotate(0)&#10;&#9;      "><text x="0" y="0" text-anchor="middle" dominant-baseline="text-before-edge" transform="translate(0,-5.333333492279053)"><tspan x="12.583274574269687" y="0" dy="0" text-anchor="start" style="font-family: Arial, sans-serif; font-size: 10px; fill: black; font-weight: normal; font-style: italic;">7.6</tspan></text></g><g transform="&#10;&#9;        rotate(68.76771444320806)&#10;&#9;        translate(190,0)&#10;&#9;        rotate(0)&#10;&#9;      "><text x="0" y="0" text-anchor="middle" dominant-baseline="text-before-edge" transform="translate(0,-5.333333492279053)"><tspan x="11.737916275711562" y="0" dy="0" text-anchor="start" style="font-family: Arial, sans-serif; font-size: 10px; fill: black; font-weight: normal; font-style: italic;">6</tspan></text></g><g transform="&#10;&#9;        rotate(81.91927921087316)&#10;&#9;        translate(190,0)&#10;&#9;        rotate(0)&#10;&#9;      "><text x="0" y="0" text-anchor="middle" dominant-baseline="text-before-edge" transform="translate(0,-5.333333492279053)"><tspan x="11.272658684590262" y="0" dy="0" text-anchor="start" style="font-family: Arial, sans-serif; font-size: 10px; fill: black; font-weight: normal; font-style: italic;">5.2</tspan></text></g><g transform="&#10;&#9;        rotate(98.56629749296727)&#10;&#9;        translate(190,0)&#10;&#9;        rotate(180)&#10;&#9;      "><text x="0" y="0" text-anchor="middle" dominant-baseline="text-before-edge" transform="translate(0,-5.333333492279053)"><tspan x="-29.969715312928916" y="0" dy="0" text-anchor="end" style="font-family: Arial, sans-serif; font-size: 10px; fill: black; font-weight: normal; font-style: italic;">82.4</tspan></text></g><g transform="&#10;&#9;        rotate(115.40602081870924)&#10;&#9;        translate(190,0)&#10;&#9;        rotate(180)&#10;&#9;      "><text x="0" y="0" text-anchor="middle" dominant-baseline="text-before-edge" transform="translate(0,-5.333333492279053)"><tspan x="-12.277781371744776" y="0" dy="0" text-anchor="end" style="font-family: Arial, sans-serif; font-size: 10px; fill: black; font-weight: normal; font-style: italic;">7</tspan></text></g><g transform="&#10;&#9;        rotate(128.70648755810078)&#10;&#9;        translate(190,0)&#10;&#9;        rotate(180)&#10;&#9;      "><text x="0" y="0" text-anchor="middle" dominant-baseline="text-before-edge" transform="translate(0,-5.333333492279053)"><tspan x="-11.509445549041192" y="0" dy="0" text-anchor="end" style="font-family: Arial, sans-serif; font-size: 10px; fill: black; font-weight: normal; font-style: italic;">5.6</tspan></text></g><g transform="&#10;&#9;        rotate(141.79089533443232)&#10;&#9;        translate(190,0)&#10;&#9;        rotate(180)&#10;&#9;      "><text x="0" y="0" text-anchor="middle" dominant-baseline="text-before-edge" transform="translate(0,-5.333333492279053)"><tspan x="-11.150847891314037" y="0" dy="0" text-anchor="end" style="font-family: Arial, sans-serif; font-size: 10px; fill: black; font-weight: normal; font-style: italic;">5</tspan></text></g><g transform="&#10;&#9;        rotate(158.3678535420926)&#10;&#9;        translate(190,0)&#10;&#9;        rotate(180)&#10;&#9;      "><text x="0" y="0" text-anchor="middle" dominant-baseline="text-before-edge" transform="translate(0,-5.333333492279053)"><tspan x="-29.726102508855906" y="0" dy="0" text-anchor="end" style="font-family: Arial, sans-serif; font-size: 10px; fill: black; font-weight: normal; font-style: italic;">80.8</tspan></text></g><g transform="&#10;&#9;        rotate(175.20984403603268)&#10;&#9;        translate(190,0)&#10;&#9;        rotate(180)&#10;&#9;      "><text x="0" y="0" text-anchor="middle" dominant-baseline="text-before-edge" transform="translate(0,-5.333333492279053)"><tspan x="-12.533219409596635" y="0" dy="0" text-anchor="end" style="font-family: Arial, sans-serif; font-size: 10px; fill: black; font-weight: normal; font-style: italic;">7.5</tspan></text></g><g transform="&#10;&#9;        rotate(188.62444089647994)&#10;&#9;        translate(190,0)&#10;&#9;        rotate(180)&#10;&#9;      "><text x="0" y="0" text-anchor="middle" dominant-baseline="text-before-edge" transform="translate(0,-5.333333492279053)"><tspan x="-11.849294338089296" y="0" dy="0" text-anchor="end" style="font-family: Arial, sans-serif; font-size: 10px; fill: black; font-weight: normal; font-style: italic;">6.2</tspan></text></g><g transform="&#10;&#9;        rotate(201.831563716765)&#10;&#9;        translate(190,0)&#10;&#9;        rotate(180)&#10;&#9;      "><text x="0" y="0" text-anchor="middle" dominant-baseline="text-before-edge" transform="translate(0,-5.333333492279053)"><tspan x="-11.451063692158879" y="0" dy="0" text-anchor="end" style="font-family: Arial, sans-serif; font-size: 10px; fill: black; font-weight: normal; font-style: italic;">5.5</tspan></text></g><g transform="&#10;&#9;        rotate(218.51859259381268)&#10;&#9;        translate(190,0)&#10;&#9;        rotate(180)&#10;&#9;      "><text x="0" y="0" text-anchor="middle" dominant-baseline="text-before-edge" transform="translate(0,-5.333333492279053)"><tspan x="-30" y="0" dy="0" text-anchor="end" style="font-family: Arial, sans-serif; font-size: 10px; fill: black; font-weight: normal; font-style: italic;">82.6</tspan></text></g><g transform="&#10;&#9;        rotate(235.39370817912567)&#10;&#9;        translate(190,0)&#10;&#9;        rotate(180)&#10;&#9;      "><text x="0" y="0" text-anchor="middle" dominant-baseline="text-before-edge" transform="translate(0,-5.333333492279053)"><tspan x="-12.432097784733472" y="0" dy="0" text-anchor="end" style="font-family: Arial, sans-serif; font-size: 10px; fill: black; font-weight: normal; font-style: italic;">7.3</tspan></text></g><g transform="&#10;&#9;        rotate(248.7237609098401)&#10;&#9;        translate(190,0)&#10;&#9;        rotate(180)&#10;&#9;      "><text x="0" y="0" text-anchor="middle" dominant-baseline="text-before-edge" transform="translate(0,-5.333333492279053)"><tspan x="-11.509445549041192" y="0" dy="0" text-anchor="end" style="font-family: Arial, sans-serif; font-size: 10px; fill: black; font-weight: normal; font-style: italic;">5.6</tspan></text></g><g transform="&#10;&#9;        rotate(261.74765303232033)&#10;&#9;        translate(190,0)&#10;&#9;        rotate(180)&#10;&#9;      "><text x="0" y="0" text-anchor="middle" dominant-baseline="text-before-edge" transform="translate(0,-5.333333492279053)"><tspan x="-10.835206663338848" y="0" dy="0" text-anchor="end" style="font-family: Arial, sans-serif; font-size: 10px; fill: black; font-weight: normal; font-style: italic;">4.5</tspan></text></g></g></g><g id="legend" transform="translate(805,10)"><g transform="translate(5,0)"><g class="legendSize" transform="translate(0,0)"><g class="legendCells" transform="translate(25,16)"><g class="cell" transform="translate(0, 0)"><circle class="swatch" r="0" fill="none" stroke="#ccc"/><text class="label" transform="translate( 30,&#10;          5)" font-family="&quot;Arial&quot;, sans-serif" font-size="10px"><tspan x="0" dy="0em">0.0</tspan></text></g><g class="cell" transform="translate(0, 41)"><circle class="swatch" r="25" fill="none" stroke="#ccc"/><text class="label" transform="translate( 30,&#10;          5)" font-family="&quot;Arial&quot;, sans-serif" font-size="10px"><tspan x="0" dy="0em">82.6</tspan></text></g></g><text class="legendTitle" font-family="&quot;Arial&quot;, sans-serif" font-size="12px" font-weight="bold"><tspan x="0" dy="0em">Value</tspan></text></g><g class="legendColor" transform="translate(0,114.44444274902344)"><g class="legendCells" transform="translate(0,16)"><g class="cell" transform="translate(0, 0)"><rect class="swatch" height="15" width="15" style="fill: rgb(31, 119, 180);"/><text class="label" transform="translate( 20, 12.5)" font-family="&quot;Arial&quot;, sans-serif" font-size="10px"><tspan x="0" dy="0em">appena povere (spesa fra</tspan><tspan x="0" dy="1.2em">l'80% della line di povertà e</tspan><tspan x="0" dy="1.2em">la linea di povertà)</tspan></text></g><g class="cell" transform="translate(0, 52.20000457763672)"><rect class="swatch" height="15" width="15" style="fill: rgb(255, 127, 14);"/><text class="label" transform="translate( 20, 12.5)" font-family="&quot;Arial&quot;, sans-serif" font-size="10px"><tspan x="0" dy="0em">quasi povere (spesa</tspan><tspan x="0" dy="1.2em">compresa fra la line di</tspan><tspan x="0" dy="1.2em">povertà e il 120% della</tspan><tspan x="0" dy="1.2em">stessa)</tspan></text></g><g class="cell" transform="translate(0, 120.00000762939453)"><rect class="swatch" height="15" width="15" style="fill: rgb(44, 160, 44);"/><text class="label" transform="translate( 20, 12.5)" font-family="&quot;Arial&quot;, sans-serif" font-size="10px"><tspan x="0" dy="0em">sicuramente non povere</tspan><tspan x="0" dy="1.2em">(spesa maggiore del 120%</tspan><tspan x="0" dy="1.2em">della linea di povertà)</tspan></text></g><g class="cell" transform="translate(0, 172.20001220703125)"><rect class="swatch" height="15" width="15" style="fill: rgb(214, 39, 40);"/><text class="label" transform="translate( 20, 12.5)" font-family="&quot;Arial&quot;, sans-serif" font-size="10px"><tspan x="0" dy="0em">sicuramente povere (spesa</tspan><tspan x="0" dy="1.2em">fino all'80% della linea di</tspan><tspan x="0" dy="1.2em">povertà)</tspan></text></g></g><text class="legendTitle" font-family="&quot;Arial&quot;, sans-serif" font-size="12px" font-weight="bold"><tspan x="0" dy="0em">Linee di povertà</tspan></text></g></g></g></svg>